<svg xmlns="http://www.w3.org/2000/svg" width="32" height="32"><g fill-rule="nonzero" fill="none"><path fill="#34005F" d="M20.382 19.627c.72 0 1.209.272 1.443.742v-.641h.907v4.347c0 1.19-.587 2.35-2.35 2.35-1.17 0-2.048-.742-2.173-1.745l.896-.228c.05.663.612 1.17 1.277 1.152.983 0 1.432-.508 1.432-1.521v-.674a1.56 1.56 0 01-1.432.771c-1.25 0-2.154-.945-2.154-2.27 0-1.27.866-2.283 2.154-2.283zM2.317 19.57c1.445 0 2.252.995 2.252 2.445 0 .098-.006.197-.02.294H1.02a1.386 1.386 0 001.412 1.42c.608.04 1.16-.356 1.317-.945l.794.285a2.126 2.126 0 01-2.109 1.48c-1.255 0-2.358-.915-2.358-2.504 0-1.472 1.063-2.475 2.242-2.475zm10.002 0c1.443 0 2.252.995 2.252 2.445 0 .099-.007.197-.021.294h-3.532a1.396 1.396 0 001.416 1.42 1.273 1.273 0 001.314-.945l.793.285a2.122 2.122 0 01-2.105 1.48c-1.258 0-2.36-.915-2.36-2.504 0-1.472 1.061-2.475 2.243-2.475zm15.349 0c1.442 0 2.252.995 2.252 2.445.001.098-.005.197-.019.294h-3.542a1.389 1.389 0 001.412 1.42c.608.04 1.16-.356 1.318-.945l.801.285a2.12 2.12 0 01-2.105 1.48c-1.258 0-2.358-.915-2.358-2.504 0-1.472 1.062-2.475 2.241-2.475zm-2.996.158v4.675l-.908.006v-4.681h.908zm-7.012-.082c.101 0 .202.01.302.03v.965a2.68 2.68 0 00-.4-.027c-.769 0-1.287.407-1.287 1.442v2.347h-.916v-4.675h.897v.815a1.467 1.467 0 011.404-.897zm-9.962-.06c1.122 0 1.676.816 1.676 1.853v2.964H8.46v-2.817c0-.652-.272-1.179-1.087-1.179-.72 0-1.086.576-1.086 1.288l-.011 2.708H5.36v-4.675h.897v.674a1.607 1.607 0 011.442-.815zm12.82.813c-.793 0-1.358.595-1.358 1.502 0 .908.527 1.5 1.358 1.5.831 0 1.336-.584 1.336-1.5 0-.907-.543-1.502-1.336-1.502zm7.16-.022a1.26 1.26 0 00-1.276 1.201h2.564a1.181 1.181 0 00-1.287-1.201zm-15.35 0a1.26 1.26 0 00-1.277 1.201h2.564a1.18 1.18 0 00-1.288-1.201zm-10 0a1.26 1.26 0 00-1.277 1.201h2.564a1.183 1.183 0 00-1.287-1.201zm1.58-2.69l-1.22 1.424H1.91l.848-1.423H3.91zm20.304-.404a.662.662 0 11-.241 1.272.66.66 0 01-.41-.61.658.658 0 01.651-.662zM19.227 4.396l.036.002c-.008.257-.062.51-.157.75a1.729 1.729 0 01-.389.633h.142c-.631 1.606-1.44 1.842-1.44 1.842l.106.057a1.62 1.62 0 01-.568.275l.097.06a1.53 1.53 0 01-1.208.079c.248-1.126 1.528-2.3 1.473-2.355-.054-.054-1.201.64-1.736 2.237-.806-.402-.365-1.76-.365-1.76l.076.075a2.664 2.664 0 011.54-1.651v.106c.584-.284 1.24-.383 1.883-.284l-.088.09c.113-.006.225-.027.333-.063.13-.042.256-.112.301-.09zM14.76 4c.073.03.166.33.196.492.03.163.049.465.049.465l.09-.075c.213.352.255.781.115 1.168l-.081-.052c-.17.379-.238.796-.194 1.208-.6-.45-.546-1.567-.634-1.567-.087 0-.226 1.163.794 2.225a.755.755 0 01-.603.118l.06-.06c-.749-.154-1.141-.973-1.141-.973l.102.025a3.194 3.194 0 01-.024-1.766l.097.063c.113-.286.271-.552.468-.788.185-.225.43-.392.706-.483z"/><path fill="#006450" d="M9.102 8.97a3.75 3.75 0 013.75 3.748v3.75h-2.147v-3.75a1.603 1.603 0 00-3.206 0v3.75H5.352v-3.75l-.006-.145a1.604 1.604 0 00-3.2.145v3.75H0v-3.75a3.747 3.747 0 016.424-2.623 3.738 3.738 0 012.678-1.126zm12.969 0a3.75 3.75 0 013.75 3.748v3.75h-2.147v-3.75a1.603 1.603 0 00-3.206 0v3.75h-2.143v-3.75a3.748 3.748 0 013.746-3.749zm6.478-2.519l.117.007c.537.058.955.513.955 1.065v1.54h1.108c.59.003 1.066.482 1.066 1.071l-.007.117a1.074 1.074 0 01-1.065.958h-1.108v5.259h-2.143v-5.259h-.136a1.075 1.075 0 01-1.072-1.075l.006-.116c.058-.534.508-.95 1.057-.955h.145v-1.54a1.07 1.07 0 011.077-1.072zm-12.963 2.59l.117.007c.538.058.957.512.958 1.065v6.34h-2.146v-6.34c0-.592.48-1.071 1.071-1.071z"/></g></svg>