<svg version="1.0" xmlns="http://www.w3.org/2000/svg" viewBox="0 0 595.3 613"><path d="M323.4 598.1c143.5 0 259.8-116.3 259.8-259.8S466.9 78.5 323.4 78.5 63.6 194.8 63.6 338.3s116.3 259.8 259.8 259.8" fill="#32a9db"/><path d="M297 533.3c143.5 0 259.8-116.3 259.8-259.8S440.5 13.7 297 13.7 37.2 130 37.2 273.5 153.5 533.3 297 533.3" fill="#a0da05"/><path d="M270 598.1c143.5 0 259.8-116.3 259.8-259.8S413.5 78.5 270 78.5 10.2 194.8 10.2 338.3 126.5 598.1 270 598.1" fill="#e0e0e0"/><path d="M296.7 569.9c143.5 0 259.8-116.3 259.8-259.8S440.2 50.3 296.7 50.3 36.9 166.6 36.9 310.1s116.3 259.8 259.8 259.8" fill="#1b5172"/><path d="M261.7 247.2c-3.9-2.2-6.2-5.6-7.2-10.1-.1-.4.1-.8.5-1 2-.8 1.1-2.4 1-3.8-.1-3.5-.5-7 .5-10.4.4-1.3.5-3 2.7-2.7 1 .1.9-1 1.1-1.6 1.3-3.4 2.9-6.7 5.4-9.4 1-1.1 1.7-3.1 4-2.1.3.1.9-.7 1.4-1.2 3.8-3.9 8.3-7 13.4-9.1.9-.4 2-1.8 3 .1.1.1 1.2-.3 1.8-.5 4.4-1.5 8.8-3 13.4-3.5 2-.2 2-.2 3.5 1.4.2.3.9.2 1.3.2 2.6 0 5.2-.2 7.8.4 1.3.3 3-.1 3.3 2 .1.5 1 .4 1.5.4 2 .2 4 .7 5.9 1.5 1.1.5 1.5 1.1.8 2.3-1.8 3.1-4 6-4.7 9.7-.4 2.2-2.4 4-3.9 5.8-.4.4-1.9 1-.1 1.7.6.2-.2 1-.4 1.4-1.9 3.4-4.6 6.2-7.5 8.8-.5.5-2.1.8-.8 2.1.1.1-.5 1.1-.9 1.6-2.1 2.7-4.7 4.6-7.5 6.6-.5.4-2 .5-.8 1.8.5.5-.3 1-.8 1.3-1.3.8-2.8 1.4-4.1 2.2-.9.5-2.8.2-2.1 2.3.2.4-.8.7-1.3.8-1.6.4-3.2.6-4.7 1-.9.3-3.1-1-2.4 1.7 0 .1-1.1.6-1.7.7-4.9.9-9.9.5-14.8.1-1.3-.1-1.3-1-1.2-1.9.3-3 1.4-5.8 2.9-8.4 4.7-8 11.3-14.3 18.2-20.4 3.6-3.2 12-9.3 11.5-9.9-.5-.6-26.5 15.8-37.7 37.7 0 .4-.2.5-.3.4z" fill="#a0da05"/><path d="M254.8 246.3c.1.2 0 .4-.2.4-1.6-.2-3.9 2.5-5.8 2.2-1.1-.2-3.1.4-2.8-2 0-.2-.9-.6-1.4-.8-2.2-.9-4.3-1.9-6.1-3.5-1-.9-2.6-1.6-1.6-3.5.3-.6-.6-1.1-1-1.5-1.6-2-3.5-4-3.7-6.5-.3-5.4-2.8-10.8-1.2-16.1 1.4-4.4 1.3-9.5 4.1-13.2 2-2.7 3.4-6.2 6.2-8 1.8-1.2 3.1-2.6 4.6-3.9 1.2-1.1 2.2-1.3 3 .4.9 2.1 2.2 3.8 3.9 5.5 1.8 1.8 2.2 4.6 4.2 6.6 1.9 1.8 1.7 5.1 3 7.3 1.5 2.5 0 3.9-.7 5.8-.3.8-.5 1.5-1.8 1.2-1.3-.3-1.6 1.1-2 2-1.6 3.6-1.5 7.4-1.6 11.2 0 1.5 1.2 3.4-1.3 4-.7.2-.7 2.9-.9 2.4-4.2-11.5-5.8-25.6-6.5-25.5-.8 0 1.1 23.3 9.6 35.5z" fill="#a0da05"/><g fill="#a0da05"><path d="M221.4 400.6V394c0-3.2-.4-6.2-1.1-9-2.1-7.9-8.1-11.8-16.3-10.7-6.9.9-12.4 4.1-16.7 9.5 0-2.1 0-3.8.1-5.6 0-.8 0-1.8-.6-2.5s-1.6-.8-2.5-.8c-.8 0-1.7.1-2.4.7-.7.7-.7 1.6-.7 2.6.1 15.6.1 29.4 0 42.2 0 2.1.5 3.4 3.4 3.5h.2c.7 0 1.7-.1 2.3-.8.8-.8.8-1.9.8-2.9v-16.8-7.8c0-1.1 0-2.1.4-3 2.6-6 6.9-10 13-11.8 3.5-1 6.5-.9 8.7.5 2.2 1.3 3.7 3.8 4.5 7.4.5 2.6.8 5.4.8 9v23c0 .8.1 1.8.8 2.4.7.6 1.6.7 2.4.6h.3c1.2-.1 3.1-.1 3.1-3-.5-6.6-.5-13.5-.5-20.1zM306.1 375c-.9.1-1.8.2-2.7.5-5.2 1.4-8.8 4.6-11.5 8 0-1.8 0-3.7.1-5.5 0-.6 0-1.6-.6-2.3-.7-.7-1.6-.8-2.6-.8-.8 0-1.8 0-2.5.7-.6.6-.7 1.6-.7 2.3.1 15.1.1 29.1 0 42.8 0 2.8 1.6 3.1 3.3 3.1h.2c.8 0 1.7-.1 2.3-.7.7-.7.7-1.6.7-2.4-.1-4.2-.1-8.5 0-12.7v-11.9c0-2.1.5-4 1.5-5.9 2.9-5.3 7.4-8.3 13.5-9.1h.3c.9-.1 2.5-.3 2.5-2.6 0-1.6 0-2.5-.6-3.1-.7-.5-1.7-.5-3.2-.4zM378.3 405.4v-5.9-5.9c0-5.1 0-10.4.1-15.7 0-.6 0-1.6-.7-2.2-.7-.7-1.6-.7-2.6-.6h-.3c-.8 0-1.7 0-2.4.7-.5.5-.7 1.2-.7 2.3.1 12.6.1 26.3 0 42.9 0 .8.1 1.8.8 2.4.5.5 1.3.6 2 .6h.9c1.2 0 3.1-.1 3.1-3.1-.2-5.2-.2-10.4-.2-15.5zM356.9 375.1h-.4c-.6 0-1.5 0-2.1.6-.4.4-.6 1.1-.6 1.9.1 1.8.1 3.5 0 5.5v.2c-.9-1-1.6-1.8-2.4-2.6-9-8.7-21.6-8.8-30-.4-7.8 7.7-10 17.4-6.4 27.9 3.1 8.9 9.3 14.4 18 15.9 7.8 1.3 14.6-1.2 20.2-7.6v1.2c0 2.4.1 5-.1 7.4-.3 5.1-2.9 8.8-7.7 11.1-7.6 3.6-19.7 2.1-24.9-5.7-.5-.7-1-1.1-1.6-1.2-.8-.1-1.4.3-1.9.6-.1.1-.3.2-.4.3-.5.3-1.2.7-1.4 1.5-.2.8.2 1.6.6 2.1 3 4.3 6.6 7 11 8.5 3.2 1 6.5 1.6 9.7 1.6 3.3 0 6.6-.5 9.9-1.6 8-2.7 13.3-9.3 13.3-16.8.1-9.9.1-20 .1-29.7v-18.3c0-.9-.2-1.5-.7-2-.6-.5-1.5-.5-2.2-.4zm-3.7 22.8v2.9c0 .8-.1 1.7.1 2.6.7 3.8-.9 7.7-4.4 10.8-4.6 4-11.2 5.5-16.1 3.8-5.1-1.8-9.2-5.7-11.3-10.9-2.2-5.4-1.9-11.6.7-17 3.2-6.5 8.1-9.7 14.4-9.7h.9c6.8.3 11.9 3.9 15.3 10.6.6 1.3.5 2.7.4 4.3v2.6zM267.8 378.8c-6.1-4.6-14-5.8-21.5-3.3-7.7 2.5-13.4 8.6-15.6 16.8-2.4 8.6-.3 17.7 5.6 24.3 4.5 5.1 11.1 8 18.1 8 .7 0 1.4 0 2.1-.1 7.1-.6 13.2-4.1 16.7-9.7l.3-.3c.4-.5 1-1.3.8-2.1-.1-.4-.3-.8-1.1-1.2-.2-.1-.3-.2-.5-.3-.8-.4-1.8-1-3-.7-.7.2-1.3.8-1.8 1.6-.8 1.4-1.9 2.7-3.4 3.7-5.7 4-11.5 4.6-17.2 1.9-5.9-2.8-9.5-7.8-10.7-15v-.4H275c.9 0 2.8 0 2.8-2.5.2-8-3.5-15.9-10-20.7zm3.5 17.8h-34.7v-.8c1.2-9.1 8.6-15.9 17.3-15.9h.1c8.9 0 16.2 6.8 17.4 16.2-.1.3-.1.4-.1.5zM162.5 378.3c-5.5-3.7-12.2-5-18.6-3.5-13 3.1-20.8 15.9-18.2 29.8 2.2 11.8 12.3 20 23.8 20 1.3 0 2.6-.1 4-.3 6.8-1.1 11.9-4.4 15.3-9.8 0-.1.1-.2.2-.2.3-.4 1.2-1.6.2-2.8-.6-.7-1.6-1.1-2.9-1-1.3.1-2.3.6-2.9 1.4-3.1 4.6-7.6 7-13.6 7.2-8.8.3-16.5-7-17.9-16.8v-.1H166.5c3.4 0 5.2 0 6.1-1.1 1-1.1.7-2.8.2-6.2-.9-6.7-4.7-12.8-10.3-16.6zm4.1 17.4c.1.7.1.9.1.9s-.2.1-.9.1c-2.5 0-5-.1-7.5-.1H132v-.3c1.2-7.5 4.7-12.4 10.8-15 6.2-2.6 12.1-1.7 17.5 2.7 3.2 2.7 5.4 6.5 6.3 11.7zM394.6 402.2h34c3.3 0 5 0 5.9-1.1s.7-2.7.3-6c-1-7.1-5-13.4-11.1-17.2-6-3.7-13.3-4.6-20-2.4-10.1 3.3-16.6 12.7-16.6 23.9s6.8 21 17 24.2c2.3.7 4.8 1.1 7.2 1.1 7.7 0 15.4-3.6 19.1-9.7l.3-.3c.4-.5 1.1-1.2.9-2.2-.1-.6-.5-1-1.2-1.3-.1-.1-.3-.1-.5-.2-1-.5-3-1.6-4.6.9-2.9 4.7-7.5 7.1-13.7 7.2-8.9.2-16.3-6.9-17.7-16.7v-.2h.7zm16.5-22.3c8.8 0 16.2 6.7 17.4 15.9.1.5 0 .7 0 .7s-.2.1-.9.1c-4-.1-8 0-12 0H394.8c-.8 0-1-.1-1-.1s-.1-.2 0-.9c1.4-9.1 8.6-15.7 17.3-15.7z"/></g><path d="M350.3 301.4c-.7 8.9-1.6 17.7-.7 26.6.8 8.6 4.6 15.6 11.2 21 3.6 2.9 7.7 4.9 12.5 4.8 3.7-.1 4.8-1.3 3.6-4.6-2.7-7.4-2.9-15-3.3-22.7-.6-12.2 2.2-23.9 4.2-35.8 1.7-10.2 4.1-20.3 5.3-30.6.3-3-.8-5.2-3.1-6.9-2.4-1.8-5.2-2.9-8-4-7.9-3-13.1-1.6-18.3 5-3.6 4.5-6.3 9.6-8.8 14.8-8.7 18.1-20.6 58.3-21.6 58.2-1 0-1.3-11.9-1.1-17.8.3-7.8.5-15.5.7-23.3.1-3-1.1-5.4-3.8-6.8-6.8-3.5-14-3.7-21.3-1.9-2.3.5-2.7 1.9-1.2 3.8 1 1.2 1.3 2.5 1.2 4-.3 8.3.1 16.5 1 24.7.1.9 0 1.6-.4 2.3-3.2 7-13.8 23.9-15.3 23.3-1.4-.6-3.5-9.3-4.5-14.1-2.3-11-2.8-21.1-2.2-31.8l.9-17.4c.1-2.2-.3-4.3-1.9-5.8-4.9-4.8-10.8-7.3-17.8-6.9-2.1.1-3.4 1.2-3.6 3.5-.8 9-1.9 18-2 27.1-.1 10.3.1 20.5 2.2 30.7 1.7 7.8 4.4 15.2 10 21.2 7.5 8.1 17.6 7.4 24.8-.8 6.3-7.2 10.2-20.3 11.3-20.2 1.2.2 5.2 17.8 10.7 23.8 3.1 3.4 7 4.9 11.5 4.7 1.9-.1 3.2-.7 4.2-2.6 1.4-2.9 2.9-5.8 4-8.8 4.2-10.9 7.7-22.1 11.2-33.3 3.9-12.6 11.1-37.5 12.1-37.2.9.5-2.9 22.9-3.7 33.8zM211.8 302.8c.5.1 2.2 19.3 5.3 28.6 1.7 5 3.8 9.8 7.5 13.7 3.1 3.3 6.8 5.1 11.4 5.2 3.2 0 4.1-.9 3.9-4.1-.1-1.6-.4-3.2-.6-4.8-1.9-10.9-2.8-21.8-2.3-32.8.3-6.6 1.7-13.1 2-19.8.2-5.2-2.2-8.8-6.9-10.9-3.5-1.6-7.2-2.5-11.1-2.3-3.3.1-5.4 1.1-7.2 3.5-2.5 3.6-4.6 7.4-6.4 11.4-4.1 8.7-12.4 30.3-12.8 30-.5-.2 1.3-11.9 1.8-17.5 1-11.9 1.8-23.9-.2-35.8-1-6.1-2.9-11.8-7.1-16.5-5.8-6.5-14.7-6-19.8.9-2.6 3.5-4.6 7.4-6.3 11.4-6.3 15.1-9.8 30.9-13.1 46.8-1.2 5.5-2.1 11-3.1 16.6-.3-5.5-.4-11-.1-16.5.5-8.4 1.8-16.7 1.7-25.2 0-2.3-.6-4.4-2.4-5.8-6.3-4.9-13.6-6.3-21.4-5.1-2.3.4-3.1 2.7-1.5 4.4 1.4 1.4 1.5 2.9 1.4 4.7-.2 14.6-.6 29.3 1.9 43.8 1.2 7.1 3.2 14 8.2 19.7 3.4 3.8 7.6 5.5 12.6 5.2 2.8-.1 3.6-1 3-3.7-.5-2.1-.2-4.1.2-6.2l10.2-51.3c1.9-9.4 4-18.8 7.8-27.7.8-2 1.8-4 3.5-5.5 2-1.7 3.4-1.3 3.9 1.3.8 4.1.6 8.2.2 12.3-1.6 16.3-3.4 32.6-5 49-.4 4.3-.9 8.6 0 12.8 1.6 7.9 8.9 13.5 18.4 14.4 2.5.2 4.1-.4 5.5-2.6 2.4-3.8 4.5-7.8 6.3-12 3.8-9.8 10-29.7 10.6-29.6z" fill="#fff"/><path d="M501.7 221c1.8 0 3.6 0 5.3.3 1.7.3 1.9 1.4.6 2.5-1.1 1-2.5 1.4-3.9 1.8-13.2 3.7-26.6 5.9-40.1 7.8-11.7 1.6-23.5 3.2-35.3 3.9-1.6.1-1.8 1-2 2.2-1.8 11.2-3.8 22.5-5.5 33.7-1.6 10.7-3.2 21.4-3.7 32.3-.8 16.6.3 33 5.5 48.9.8 2.4 1.8 4.7 2.7 7 1 2.9.6 3.5-2.4 3.6-4.7.3-8.3-2.1-11.4-5.1-5.8-5.6-9.1-12.7-11.8-20.1-4.7-13.1-5.9-26.8-5.6-40.6.4-16.5 2.9-32.8 5.3-49.1.5-3.1.9-6.2 1.6-9.3.4-1.8-.2-2-1.8-1.9-8.6.2-17.2-.2-25.7-1.7-9.5-1.7-18.1-5.6-26.2-10.5-3.3-2-6.5-4.2-9.7-6.4-1-.7-2.2-1.5-1.5-2.9.7-1.3 1.9-1.2 3.2-.9 20.8 4 41.9 5 63 6 1.4.1 2.1-.1 2.4-1.8 1.9-10.2 4-20.3 5.5-30.5.3-2 .2-4.1.5-6 .8-4.4 3.8-6.4 8.3-5.7 7.3 1.3 14.1 9.2 13.9 16.6-.2 8.3-1.8 16.5-3.1 24.8-.4 2.8-.5 2.8 2.4 2.8 12-.4 58.3-1.5 69.5-1.7z" fill="#fff"/></svg>