<?xml version="1.0" encoding="UTF-8"?>
<!-- Generator: Adobe Illustrator 23.0.6, SVG Export Plug-In . SVG Version: 6.00 Build 0)  -->
<svg version="1.0" id="Calque_1" xmlns="http://www.w3.org/2000/svg" xmlns:xlink="http://www.w3.org/1999/xlink" x="0px" y="0px" viewBox="0 0 595.3 613" style="enable-background:new 0 0 595.3 613;" xml:space="preserve">
<style type="text/css">
	.st0{fill:#32A9DB;}
	.st1{fill:#A0DA05;}
	.st2{fill:#E0E0E0;}
	.st3{fill:#1B5172;}
	.st4{fill:#FFFFFF;}
</style>
<g>
	<path class="st0" d="M323.4,598.1c143.5,0,259.8-116.3,259.8-259.8c0-143.5-116.3-259.8-259.8-259.8   c-143.5,0-259.8,116.3-259.8,259.8C63.6,481.8,179.9,598.1,323.4,598.1"/>
	<path class="st1" d="M297,533.3c143.5,0,259.8-116.3,259.8-259.8c0-143.5-116.3-259.8-259.8-259.8   c-143.5,0-259.8,116.3-259.8,259.8C37.2,417,153.5,533.3,297,533.3"/>
	<path class="st2" d="M270,598.1c143.5,0,259.8-116.3,259.8-259.8c0-143.5-116.3-259.8-259.8-259.8   c-143.5,0-259.8,116.3-259.8,259.8C10.2,481.8,126.5,598.1,270,598.1"/>
	<path class="st3" d="M296.7,569.9c143.5,0,259.8-116.3,259.8-259.8c0-143.5-116.3-259.8-259.8-259.8   c-143.5,0-259.8,116.3-259.8,259.8C36.9,453.6,153.2,569.9,296.7,569.9"/>
	<path class="st1" d="M261.7,247.2c-3.9-2.2-6.2-5.6-7.2-10.1c-0.1-0.4,0.1-0.8,0.5-1c2-0.8,1.1-2.4,1-3.8c-0.1-3.5-0.5-7,0.5-10.4   c0.4-1.3,0.5-3,2.7-2.7c1,0.1,0.9-1,1.1-1.6c1.3-3.4,2.9-6.7,5.4-9.4c1-1.1,1.7-3.1,4-2.1c0.3,0.1,0.9-0.7,1.4-1.2   c3.8-3.9,8.3-7,13.4-9.1c0.9-0.4,2-1.8,3,0.1c0.1,0.1,1.2-0.3,1.8-0.5c4.4-1.5,8.8-3,13.4-3.5c2-0.2,2-0.2,3.5,1.4   c0.2,0.3,0.9,0.2,1.3,0.2c2.6,0,5.2-0.2,7.8,0.4c1.3,0.3,3-0.1,3.3,2c0.1,0.5,1,0.4,1.5,0.4c2,0.2,4,0.7,5.9,1.5   c1.1,0.5,1.5,1.1,0.8,2.3c-1.8,3.1-4,6-4.7,9.7c-0.4,2.2-2.4,4-3.9,5.8c-0.4,0.4-1.9,1-0.1,1.7c0.6,0.2-0.2,1-0.4,1.4   c-1.9,3.4-4.6,6.2-7.5,8.8c-0.5,0.5-2.1,0.8-0.8,2.1c0.1,0.1-0.5,1.1-0.9,1.6c-2.1,2.7-4.7,4.6-7.5,6.6c-0.5,0.4-2,0.5-0.8,1.8   c0.5,0.5-0.3,1-0.8,1.3c-1.3,0.8-2.8,1.4-4.1,2.2c-0.9,0.5-2.8,0.2-2.1,2.3c0.2,0.4-0.8,0.7-1.3,0.8c-1.6,0.4-3.2,0.6-4.7,1   c-0.9,0.3-3.1-1-2.4,1.7c0,0.1-1.1,0.6-1.7,0.7c-4.9,0.9-9.9,0.5-14.8,0.1c-1.3-0.1-1.3-1-1.2-1.9c0.3-3,1.4-5.8,2.9-8.4   c4.7-8,11.3-14.3,18.2-20.4c3.6-3.2,12-9.3,11.5-9.9c-0.5-0.6-26.5,15.8-37.7,37.7C262,247.2,261.8,247.3,261.7,247.2z"/>
	<path class="st1" d="M254.8,246.3c0.1,0.2,0,0.4-0.2,0.4c-1.6-0.2-3.9,2.5-5.8,2.2c-1.1-0.2-3.1,0.4-2.8-2c0-0.2-0.9-0.6-1.4-0.8   c-2.2-0.9-4.3-1.9-6.1-3.5c-1-0.9-2.6-1.6-1.6-3.5c0.3-0.6-0.6-1.1-1-1.5c-1.6-2-3.5-4-3.7-6.5c-0.3-5.4-2.8-10.8-1.2-16.1   c1.4-4.4,1.3-9.5,4.1-13.2c2-2.7,3.4-6.2,6.2-8c1.8-1.2,3.1-2.6,4.6-3.9c1.2-1.1,2.2-1.3,3,0.4c0.9,2.1,2.2,3.8,3.9,5.5   c1.8,1.8,2.2,4.6,4.2,6.6c1.9,1.8,1.7,5.1,3,7.3c1.5,2.5,0,3.9-0.7,5.8c-0.3,0.8-0.5,1.5-1.8,1.2c-1.3-0.3-1.6,1.1-2,2   c-1.6,3.6-1.5,7.4-1.6,11.2c0,1.5,1.2,3.4-1.3,4c-0.7,0.2-0.7,2.9-0.9,2.4c-4.2-11.5-5.8-25.6-6.5-25.5   C244.4,210.8,246.3,234.1,254.8,246.3z"/>
	<g>
		<path class="st1" d="M221.4,400.6c0-2.2,0-4.4,0-6.6c0-3.2-0.4-6.2-1.1-9c-2.1-7.9-8.1-11.8-16.3-10.7c-6.9,0.9-12.4,4.1-16.7,9.5    c0-2.1,0-3.8,0.1-5.6c0-0.8,0-1.8-0.6-2.5c-0.6-0.7-1.6-0.8-2.5-0.8c-0.8,0-1.7,0.1-2.4,0.7c-0.7,0.7-0.7,1.6-0.7,2.6    c0.1,15.6,0.1,29.4,0,42.2c0,2.1,0.5,3.4,3.4,3.5c0.1,0,0.1,0,0.2,0c0.7,0,1.7-0.1,2.3-0.8c0.8-0.8,0.8-1.9,0.8-2.9    c0-5.6,0-11.3,0-16.8c0-2.6,0-5.2,0-7.8c0-1.1,0-2.1,0.4-3c2.6-6,6.9-10,13-11.8c3.5-1,6.5-0.9,8.7,0.5c2.2,1.3,3.7,3.8,4.5,7.4    c0.5,2.6,0.8,5.4,0.8,9l0,5.2c0,5.8,0,11.9,0,17.8c0,0.8,0.1,1.8,0.8,2.4c0.7,0.6,1.6,0.7,2.4,0.6l0.3,0c1.2-0.1,3.1-0.1,3.1-3    C221.4,414.1,221.4,407.2,221.4,400.6z"/>
		<path class="st1" d="M306.1,375c-0.9,0.1-1.8,0.2-2.7,0.5c-5.2,1.4-8.8,4.6-11.5,8c0-1.8,0-3.7,0.1-5.5c0-0.6,0-1.6-0.6-2.3    c-0.7-0.7-1.6-0.8-2.6-0.8c-0.8,0-1.8,0-2.5,0.7c-0.6,0.6-0.7,1.6-0.7,2.3c0.1,15.1,0.1,29.1,0,42.8c0,2.8,1.6,3.1,3.3,3.1    c0.1,0,0.2,0,0.2,0c0.8,0,1.7-0.1,2.3-0.7c0.7-0.7,0.7-1.6,0.7-2.4c-0.1-4.2-0.1-8.5,0-12.7c0-3.9,0-7.9,0-11.9    c0-2.1,0.5-4,1.5-5.9c2.9-5.3,7.4-8.3,13.5-9.1l0.3,0c0.9-0.1,2.5-0.3,2.5-2.6c0-1.6,0-2.5-0.6-3.1    C308.6,374.9,307.6,374.9,306.1,375z"/>
		<path class="st1" d="M378.3,405.4c0-2,0-4,0-5.9c0-2,0-3.9,0-5.9c0-5.1,0-10.4,0.1-15.7c0-0.6,0-1.6-0.7-2.2    c-0.7-0.7-1.6-0.7-2.6-0.6l-0.3,0c-0.8,0-1.7,0-2.4,0.7c-0.5,0.5-0.7,1.2-0.7,2.3c0.1,12.6,0.1,26.3,0,42.9c0,0.8,0.1,1.8,0.8,2.4    c0.5,0.5,1.3,0.6,2,0.6c0.2,0,0.3,0,0.5,0l0.4,0c1.2,0,3.1-0.1,3.1-3.1C378.3,415.7,378.3,410.5,378.3,405.4z"/>
		<path class="st1" d="M356.9,375.1c-0.1,0-0.3,0-0.4,0c-0.6,0-1.5,0-2.1,0.6c-0.4,0.4-0.6,1.1-0.6,1.9c0.1,1.8,0.1,3.5,0,5.5    c0,0.1,0,0.2,0,0.2c-0.9-1-1.6-1.8-2.4-2.6c-9-8.7-21.6-8.8-30-0.4c-7.8,7.7-10,17.4-6.4,27.9c3.1,8.9,9.3,14.4,18,15.9    c7.8,1.3,14.6-1.2,20.2-7.6c0,0.4,0,0.8,0,1.2c0,2.4,0.1,5-0.1,7.4c-0.3,5.1-2.9,8.8-7.7,11.1c-7.6,3.6-19.7,2.1-24.9-5.7    c-0.5-0.7-1-1.1-1.6-1.2c-0.8-0.1-1.4,0.3-1.9,0.6c-0.1,0.1-0.3,0.2-0.4,0.3c-0.5,0.3-1.2,0.7-1.4,1.5c-0.2,0.8,0.2,1.6,0.6,2.1    c3,4.3,6.6,7,11,8.5c3.2,1,6.5,1.6,9.7,1.6c3.3,0,6.6-0.5,9.9-1.6c8-2.7,13.3-9.3,13.3-16.8c0.1-9.9,0.1-20,0.1-29.7    c0-6.1,0-12.2,0-18.3c0-0.9-0.2-1.5-0.7-2C358.5,375,357.6,375,356.9,375.1z M353.2,397.9c0,0.4,0,0.8,0,1.2c0,0.2,0,0.4,0,0.6    c0,0.3,0,0.7,0,1.1c0,0.8-0.1,1.7,0.1,2.6c0.7,3.8-0.9,7.7-4.4,10.8c-4.6,4-11.2,5.5-16.1,3.8c-5.1-1.8-9.2-5.7-11.3-10.9    c-2.2-5.4-1.9-11.6,0.7-17c3.2-6.5,8.1-9.7,14.4-9.7c0.3,0,0.6,0,0.9,0c6.8,0.3,11.9,3.9,15.3,10.6c0.6,1.3,0.5,2.7,0.4,4.3    C353.2,396.1,353.2,397,353.2,397.9z"/>
		<path class="st1" d="M267.8,378.8c-6.1-4.6-14-5.8-21.5-3.3c-7.7,2.5-13.4,8.6-15.6,16.8c-2.4,8.6-0.3,17.7,5.6,24.3    c4.5,5.1,11.1,8,18.1,8c0.7,0,1.4,0,2.1-0.1c7.1-0.6,13.2-4.1,16.7-9.7c0.1-0.1,0.2-0.2,0.3-0.3c0.4-0.5,1-1.3,0.8-2.1    c-0.1-0.4-0.3-0.8-1.1-1.2c-0.2-0.1-0.3-0.2-0.5-0.3c-0.8-0.4-1.8-1-3-0.7c-0.7,0.2-1.3,0.8-1.8,1.6c-0.8,1.4-1.9,2.7-3.4,3.7    c-5.7,4-11.5,4.6-17.2,1.9c-5.9-2.8-9.5-7.8-10.7-15c0-0.2,0-0.3,0-0.4c0.2,0,0.5,0,0.8,0c5,0,10.1,0,15.1,0l8.1,0    c4.8,0,9.5,0,14.3,0l0.1,0c0.9,0,2.8,0,2.8-2.5C278,391.5,274.3,383.6,267.8,378.8z M271.3,396.6c-0.2,0-0.5,0-0.6,0    c-4.1,0-8.2,0-12.4,0l-4.6,0l-4.5,0c-3.9,0-7.9,0-11.8,0c-0.5,0-0.7,0-0.8,0c0-0.1,0-0.3,0-0.8c1.2-9.1,8.6-15.9,17.3-15.9    c0,0,0,0,0.1,0c8.9,0,16.2,6.8,17.4,16.2C271.3,396.4,271.3,396.5,271.3,396.6z"/>
		<path class="st1" d="M162.5,378.3c-5.5-3.7-12.2-5-18.6-3.5c-13,3.1-20.8,15.9-18.2,29.8c2.2,11.8,12.3,20,23.8,20    c1.3,0,2.6-0.1,4-0.3c6.8-1.1,11.9-4.4,15.3-9.8c0-0.1,0.1-0.2,0.2-0.2c0.3-0.4,1.2-1.6,0.2-2.8c-0.6-0.7-1.6-1.1-2.9-1    c-1.3,0.1-2.3,0.6-2.9,1.4c-3.1,4.6-7.6,7-13.6,7.2c-8.8,0.3-16.5-7-17.9-16.8c0,0,0-0.1,0-0.1c0.1,0,0.2,0,0.3,0l34.3,0    c3.4,0,5.2,0,6.1-1.1c1-1.1,0.7-2.8,0.2-6.2C171.9,388.2,168.1,382.1,162.5,378.3z M166.6,395.7c0.1,0.7,0.1,0.9,0.1,0.9    c0,0-0.2,0.1-0.9,0.1c-2.5,0-5-0.1-7.5-0.1c-1.5,0-3,0-4.4,0c-1.6,0-3.2,0-4.8,0l-4.1,0c-4.1,0-8.3,0-12.4,0c-0.3,0-0.5,0-0.6,0    c0-0.1,0-0.2,0-0.3c1.2-7.5,4.7-12.4,10.8-15c6.2-2.6,12.1-1.7,17.5,2.7C163.5,386.7,165.7,390.5,166.6,395.7z"/>
		<path class="st1" d="M394.6,402.2L394.6,402.2c5.1,0,10.1,0,15.2,0h18.8c3.3,0,5,0,5.9-1.1s0.7-2.7,0.3-6c-1-7.1-5-13.4-11.1-17.2    c-6-3.7-13.3-4.6-20-2.4c-10.1,3.3-16.6,12.7-16.6,23.9c0,11.2,6.8,21,17,24.2c2.3,0.7,4.8,1.1,7.2,1.1c7.7,0,15.4-3.6,19.1-9.7    c0.1-0.1,0.2-0.2,0.3-0.3c0.4-0.5,1.1-1.2,0.9-2.2c-0.1-0.6-0.5-1-1.2-1.3c-0.1-0.1-0.3-0.1-0.5-0.2c-1-0.5-3-1.6-4.6,0.9    c-2.9,4.7-7.5,7.1-13.7,7.2c-8.9,0.2-16.3-6.9-17.7-16.7c0-0.1,0-0.1,0-0.2c0.1,0,0.3,0,0.4,0    C394.3,402.2,394.4,402.2,394.6,402.2z M411.1,379.9C411.1,379.9,411.1,379.9,411.1,379.9c8.8,0,16.2,6.7,17.4,15.9    c0.1,0.5,0,0.7,0,0.7c0,0-0.2,0.1-0.9,0.1c-4-0.1-8,0-12,0c-3,0-6.1,0-9.1,0c-3.8,0-7.8,0-11.7,0c-0.8,0-1-0.1-1-0.1    c0,0-0.1-0.2,0-0.9v0C395.2,386.5,402.4,379.9,411.1,379.9z"/>
	</g>
	<path class="st4" d="M350.3,301.4c-0.7,8.9-1.6,17.7-0.7,26.6c0.8,8.6,4.6,15.6,11.2,21c3.6,2.9,7.7,4.9,12.5,4.8   c3.7-0.1,4.8-1.3,3.6-4.6c-2.7-7.4-2.9-15-3.3-22.7c-0.6-12.2,2.2-23.9,4.2-35.8c1.7-10.2,4.1-20.3,5.3-30.6c0.3-3-0.8-5.2-3.1-6.9   c-2.4-1.8-5.2-2.9-8-4c-7.9-3-13.1-1.6-18.3,5c-3.6,4.5-6.3,9.6-8.8,14.8c-8.7,18.1-20.6,58.3-21.6,58.2c-1,0-1.3-11.9-1.1-17.8   c0.3-7.8,0.5-15.5,0.7-23.3c0.1-3-1.1-5.4-3.8-6.8c-6.8-3.5-14-3.7-21.3-1.9c-2.3,0.5-2.7,1.9-1.2,3.8c1,1.2,1.3,2.5,1.2,4   c-0.3,8.3,0.1,16.5,1,24.7c0.1,0.9,0,1.6-0.4,2.3c-3.2,7-13.8,23.9-15.3,23.3c-1.4-0.6-3.5-9.3-4.5-14.1c-2.3-11-2.8-21.1-2.2-31.8   c0.3-5.8,0.6-11.6,0.9-17.4c0.1-2.2-0.3-4.3-1.9-5.8c-4.9-4.8-10.8-7.3-17.8-6.9c-2.1,0.1-3.4,1.2-3.6,3.5c-0.8,9-1.9,18-2,27.1   c-0.1,10.3,0.1,20.5,2.2,30.7c1.7,7.8,4.4,15.2,10,21.2c7.5,8.1,17.6,7.4,24.8-0.8c6.3-7.2,10.2-20.3,11.3-20.2   c1.2,0.2,5.2,17.8,10.7,23.8c3.1,3.4,7,4.9,11.5,4.7c1.9-0.1,3.2-0.7,4.2-2.6c1.4-2.9,2.9-5.8,4-8.8c4.2-10.9,7.7-22.1,11.2-33.3   c3.9-12.6,11.1-37.5,12.1-37.2C354.9,268.1,351.1,290.5,350.3,301.4z"/>
	<path class="st4" d="M211.8,302.8c0.5,0.1,2.2,19.3,5.3,28.6c1.7,5,3.8,9.8,7.5,13.7c3.1,3.3,6.8,5.1,11.4,5.2   c3.2,0,4.1-0.9,3.9-4.1c-0.1-1.6-0.4-3.2-0.6-4.8c-1.9-10.9-2.8-21.8-2.3-32.8c0.3-6.6,1.7-13.1,2-19.8c0.2-5.2-2.2-8.8-6.9-10.9   c-3.5-1.6-7.2-2.5-11.1-2.3c-3.3,0.1-5.4,1.1-7.2,3.5c-2.5,3.6-4.6,7.4-6.4,11.4c-4.1,8.7-12.4,30.3-12.8,30   c-0.5-0.2,1.3-11.9,1.8-17.5c1-11.9,1.8-23.9-0.2-35.8c-1-6.1-2.9-11.8-7.1-16.5c-5.8-6.5-14.7-6-19.8,0.9   c-2.6,3.5-4.6,7.4-6.3,11.4c-6.3,15.1-9.8,30.9-13.1,46.8c-1.2,5.5-2.1,11-3.1,16.6c-0.3-5.5-0.4-11-0.1-16.5   c0.5-8.4,1.8-16.7,1.7-25.2c0-2.3-0.6-4.4-2.4-5.8c-6.3-4.9-13.6-6.3-21.4-5.1c-2.3,0.4-3.1,2.7-1.5,4.4c1.4,1.4,1.5,2.9,1.4,4.7   c-0.2,14.6-0.6,29.3,1.9,43.8c1.2,7.1,3.2,14,8.2,19.7c3.4,3.8,7.6,5.5,12.6,5.2c2.8-0.1,3.6-1,3-3.7c-0.5-2.1-0.2-4.1,0.2-6.2   c3.4-17.1,6.8-34.2,10.2-51.3c1.9-9.4,4-18.8,7.8-27.7c0.8-2,1.8-4,3.5-5.5c2-1.7,3.4-1.3,3.9,1.3c0.8,4.1,0.6,8.2,0.2,12.3   c-1.6,16.3-3.4,32.6-5,49c-0.4,4.3-0.9,8.6,0,12.8c1.6,7.9,8.9,13.5,18.4,14.4c2.5,0.2,4.1-0.4,5.5-2.6c2.4-3.8,4.5-7.8,6.3-12   C205,322.6,211.2,302.7,211.8,302.8z"/>
	<path class="st4" d="M501.7,221c1.8,0,3.6,0,5.3,0.3c1.7,0.3,1.9,1.4,0.6,2.5c-1.1,1-2.5,1.4-3.9,1.8c-13.2,3.7-26.6,5.9-40.1,7.8   c-11.7,1.6-23.5,3.2-35.3,3.9c-1.6,0.1-1.8,1-2,2.2c-1.8,11.2-3.8,22.5-5.5,33.7c-1.6,10.7-3.2,21.4-3.7,32.3   c-0.8,16.6,0.3,33,5.5,48.9c0.8,2.4,1.8,4.7,2.7,7c1,2.9,0.6,3.5-2.4,3.6c-4.7,0.3-8.3-2.1-11.4-5.1c-5.8-5.6-9.1-12.7-11.8-20.1   c-4.7-13.1-5.9-26.8-5.6-40.6c0.4-16.5,2.9-32.8,5.3-49.1c0.5-3.1,0.9-6.2,1.6-9.3c0.4-1.8-0.2-2-1.8-1.9   c-8.6,0.2-17.2-0.2-25.7-1.7c-9.5-1.7-18.1-5.6-26.2-10.5c-3.3-2-6.5-4.2-9.7-6.4c-1-0.7-2.2-1.5-1.5-2.9c0.7-1.3,1.9-1.2,3.2-0.9   c20.8,4,41.9,5,63,6c1.4,0.1,2.1-0.1,2.4-1.8c1.9-10.2,4-20.3,5.5-30.5c0.3-2,0.2-4.1,0.5-6c0.8-4.4,3.8-6.4,8.3-5.7   c7.3,1.3,14.1,9.2,13.9,16.6c-0.2,8.3-1.8,16.5-3.1,24.8c-0.4,2.8-0.5,2.8,2.4,2.8C444.2,222.3,490.5,221.2,501.7,221z"/>
</g>
</svg>