<svg xmlns="http://www.w3.org/2000/svg" width="32" height="32" viewBox="0 0 32 32">
    <g fill="none" fill-rule="evenodd">
        <g fill-rule="nonzero">
            <g>
                <path fill="#34005F" d="M20.382 15.627c.72 0 1.209.272 1.443.742v-.641h.907v4.347c0 1.19-.587 2.35-2.35 2.35-1.17 0-2.048-.742-2.173-1.745l.896-.228c.05.663.612 1.17 1.277 1.152.983 0 1.432-.508 1.432-1.521v-.674c-.295.505-.848.803-1.432.771-1.25 0-2.154-.945-2.154-2.27 0-1.27.866-2.283 2.154-2.283zM2.317 15.57c1.445 0 2.252.995 2.252 2.445 0 .098-.006.197-.02.294H1.02c-.009.378.137.742.403 1.01.267.268.63.416 1.009.41.608.04 1.16-.356 1.317-.945l.794.285c-.29.912-1.153 1.517-2.109 1.48-1.255 0-2.358-.915-2.358-2.504 0-1.472 1.063-2.475 2.242-2.475zm10.002 0c1.443 0 2.252.995 2.252 2.445 0 .099-.007.197-.021.294h-3.532c-.007.378.14.743.406 1.01.267.269.631.416 1.01.41.607.04 1.158-.356 1.314-.945l.793.285c-.289.911-1.15 1.517-2.105 1.48-1.258 0-2.36-.915-2.36-2.504 0-1.472 1.061-2.475 2.243-2.475zm15.349 0c1.442 0 2.252.995 2.252 2.445.001.098-.005.197-.019.294h-3.542c-.009.378.137.742.404 1.01.266.268.63.416 1.008.41.608.04 1.16-.356 1.318-.945l.801.285c-.288.912-1.15 1.518-2.105 1.48-1.258 0-2.358-.915-2.358-2.504 0-1.472 1.062-2.475 2.241-2.475zm-2.996.158v4.675l-.908.006v-4.681h.908zm-7.012-.082c.101 0 .202.01.302.03v.965c-.133-.019-.266-.028-.4-.027-.769 0-1.287.407-1.287 1.442v2.347h-.916v-4.675h.897v.815c.236-.562.795-.918 1.404-.897zm-9.962-.06c1.122 0 1.676.816 1.676 1.853v2.964H8.46v-2.817c0-.652-.272-1.179-1.087-1.179-.72 0-1.086.576-1.086 1.288l-.011 2.708h-.916v-4.675h.897v.674c.293-.518.848-.831 1.442-.815zm12.82.813c-.793 0-1.358.595-1.358 1.502 0 .908.527 1.5 1.358 1.5.831 0 1.336-.584 1.336-1.5 0-.907-.543-1.502-1.336-1.502zm7.16-.022c-.679-.01-1.244.522-1.276 1.201h2.564c.006-.336-.13-.658-.376-.887-.246-.23-.577-.343-.911-.314zm-15.35 0c-.68-.01-1.245.522-1.277 1.201h2.564c.007-.336-.13-.659-.376-.888-.245-.23-.577-.343-.912-.313zm-10 0c-.68-.01-1.245.522-1.277 1.201h2.564c.007-.336-.13-.659-.375-.888-.246-.23-.578-.343-.912-.313zm1.58-2.69l-1.22 1.424H1.91l.848-1.423h1.152zm20.304-.404c.268-.003.51.155.616.401.105.246.05.531-.137.722-.187.19-.471.25-.72.149-.247-.101-.41-.342-.41-.61-.002-.173.066-.341.188-.466.122-.124.29-.195.463-.196zM19.227.396l.036.002c-.008.257-.062.51-.157.75-.082.236-.215.453-.389.633h.142c-.631 1.606-1.44 1.842-1.44 1.842l.106.057c-.17.128-.363.222-.568.275l.097.06c-.375.191-.812.22-1.208.079.248-1.126 1.528-2.3 1.473-2.355-.054-.054-1.201.64-1.736 2.237-.806-.402-.365-1.76-.365-1.76l.076.075c.243-.751.807-1.356 1.54-1.651v.106c.584-.284 1.24-.383 1.883-.284l-.088.09c.113-.006.225-.027.333-.063.13-.042.256-.112.301-.09zM14.76 0c.073.03.166.33.196.492.03.163.049.465.049.465l.09-.075c.213.352.255.781.115 1.168l-.081-.052c-.17.379-.238.796-.194 1.208-.6-.45-.546-1.567-.634-1.567-.087 0-.226 1.163.794 2.225-.175.123-.395.166-.603.118l.06-.06c-.749-.154-1.141-.973-1.141-.973l.102.025c-.174-.575-.182-1.187-.024-1.766l.097.063c.113-.286.271-.552.468-.788.185-.225.43-.392.706-.483z" transform="translate(0 4)"/>
                <path fill="#006450" d="M9.102 4.97c2.07 0 3.75 1.678 3.75 3.748v3.75h-2.147v-3.75c0-.885-.718-1.603-1.603-1.603s-1.603.718-1.603 1.603v3.75H5.352v-3.75l-.006-.145c-.074-.817-.76-1.458-1.597-1.458-.885 0-1.603.718-1.603 1.603v3.75H0v-3.75c-.001-1.523.92-2.895 2.33-3.471 1.41-.576 3.029-.24 4.094.848.704-.721 1.67-1.127 2.678-1.126zm12.969 0c2.07 0 3.75 1.678 3.75 3.748v3.75h-2.147v-3.75c0-.885-.718-1.603-1.603-1.603s-1.603.718-1.603 1.603v3.75h-2.143v-3.75c0-2.07 1.676-3.747 3.746-3.749zm6.478-2.519l.117.007c.537.058.955.513.955 1.065v1.54h1.108c.59.003 1.066.482 1.066 1.071l-.007.117c-.058.538-.512.957-1.065.958h-1.108v5.259h-2.143V7.209h-.136c-.593-.002-1.072-.482-1.072-1.075l.006-.116c.058-.534.508-.95 1.057-.955h.145v-1.54c0-.285.113-.559.316-.76.202-.201.476-.313.761-.312zm-12.963 2.59l.117.007c.538.058.957.512.958 1.065v6.34h-2.146v-6.34c0-.592.48-1.071 1.071-1.071z" transform="translate(0 4)"/>
            </g>
        </g>
    </g>
</svg>
